<?xml version="1.0" standalone="no"?>
<!DOCTYPE svg PUBLIC "-//W3C//DTD SVG 20010904//EN" "http://www.w3.org/TR/2001/REC-SVG-20010904/DTD/svg10.dtd">
<svg version="1.0" xmlns="http://www.w3.org/2000/svg" xmlns:xlink="http://www.w3.org/1999/xlink"
	width="300.000000pt" height="300.000000pt" viewBox="0 0 300.000000 300.000000"
	preserveAspectRatio="xMidYMid meet">
	<metadata> Created by potrace 1.10, written by Peter Selinger 2001-2011 </metadata>
	<defs>
		<style type="text/css"> @import
			url('https://fonts.googleapis.com/css2?family=Muli:wght@100&amp;display=swap'); </style>
	</defs>
	<g transform="translate(0.000000,300.000000) scale(0.050000,-0.050000)"
		fill="#000000" stroke="none">
		<path
			d="M2756 5029 c-224 -54 -536 -259 -536 -351 0 -59 38 -46 140 50 373
349 940 332 1310 -38 510 -509 269 -1391 -428 -1573 -301 -79 -518 -32 -857
184 -79 51 -110 -12 -35 -72 515 -415 1274 -241 1571 358 381 769 -328 1645
-1165 1442z" />
		<path
			d="M2812 4818 c-218 -52 -449 -242 -548 -454 -93 -197 -71 -685 27 -603
19 16 20 39 5 95 -154 555 467 1083 988 840 121 -56 306 -214 327 -278 16 -52
89 -50 89 1 0 55 -210 265 -320 321 -181 93 -385 121 -568 78z" />
		<path
			d="M2870 4603 c-138 -36 -330 -166 -330 -223 0 -45 58 -40 113 11 397
369 1029 -75 799 -561 -90 -191 -249 -294 -454 -294 -112 0 -278 55 -307 102
-7 12 -31 22 -52 22 -72 0 -42 -68 55 -127 570 -344 1179 390 734 885 -139
154 -375 233 -558 185z" />
		<path
			d="M2896 4381 c-345 -110 -321 -701 29 -701 86 0 67 52 -38 104 -269
135 -189 516 109 516 159 0 296 -135 281 -277 -7 -68 16 -105 56 -89 50 19 27
205 -38 302 -80 121 -265 188 -399 145z" />
		<path
			d="M2220 2245 c-80 -239 -150 -446 -155 -460 -5 -14 3 -25 18 -25 26 0
320 829 318 895 -3 86 -53 -27 -181 -410z" />
		<path d="M600 2220 l0 -420 90 0 90 0 0 420 0 420 -90 0 -90 0 0 -420z" />
		<path
			d="M1454 2612 c-304 -112 -338 -610 -53 -770 300 -169 619 28 619 381 0
313 -270 499 -566 389z m259 -125 c230 -109 151 -567 -99 -567 -318 0 -316
570 3 598 15 1 58 -13 96 -31z" />
		<path
			d="M2520 2220 l0 -420 272 0 c191 0 269 7 264 22 -5 16 -84 22 -242 19
l-234 -3 0 401 c0 343 -4 401 -30 401 -26 0 -30 -60 -30 -420z" />
		<path
			d="M3180 2220 c0 -360 4 -420 30 -420 26 0 30 60 30 420 0 360 -4 420
-30 420 -26 0 -30 -60 -30 -420z" />
		<path
			d="M3420 2221 c0 -358 4 -421 30 -421 24 0 30 60 35 379 l5 380 226
-380 c306 -512 304 -512 304 41 0 369 -4 420 -32 420 -27 0 -30 -45 -25 -389
l7 -390 -60 102 c-303 512 -405 667 -446 673 l-44 7 0 -422z" />
		<path
			d="M4220 2220 c0 -360 4 -420 30 -420 24 0 30 32 30 168 0 254 18 256
244 21 124 -128 199 -191 222 -186 26 5 -18 60 -171 213 l-205 206 220 208
c158 150 209 209 180 209 -24 1 -126 -85 -265 -224 l-225 -224 0 224 c0 187
-5 225 -30 225 -26 0 -30 -60 -30 -420z" />
		<path
			d="M4900 2222 c0 -362 4 -422 30 -422 25 0 30 34 30 190 l0 190 157 0
c180 0 211 -20 233 -150 28 -166 51 -230 83 -230 23 0 28 12 19 45 -8 25 -23
98 -35 164 -14 74 -39 135 -68 164 -44 44 -45 46 -6 58 49 16 117 123 117 185
0 148 -98 207 -365 220 l-195 9 0 -423z m442 300 c140 -141 30 -282 -220 -282
l-162 0 0 170 0 170 162 0 c151 0 165 -3 220 -58z" />
		<path d="M930 1967 c-51 -51 -32 -152 34 -175 110 -38 186 110 92 177 -57 39
-85 39 -126 -2z" />
	</g>
	<text x="150" y="240" font-size="20" text-anchor="middle" fill="#aaa"
		style="font-family: 'Muli', sans-serif; letter-spacing: 3px; font-weight: 100">Device
		Management</text>
</svg>